<svg xmlns="http://www.w3.org/2000/svg" width="25" height="26" viewBox="0 0 25 26" fill="none">
  <path d="M7.50694 25.5C6.8188 25.5 6.22951 25.255 5.73905 24.765C5.2486 24.275 5.00379 23.6867 5.00462 23C5.00462 22.3125 5.24985 21.7237 5.7403 21.2337C6.23076 20.7437 6.81963 20.4992 7.50694 20.5C8.19507 20.5 8.78437 20.745 9.27482 21.235C9.76527 21.725 10.0101 22.3133 10.0092 23C10.0092 23.6875 9.76402 24.2762 9.27357 24.7662C8.78311 25.2562 8.19424 25.5008 7.50694 25.5ZM20.0185 25.5C19.3304 25.5 18.7411 25.255 18.2506 24.765C17.7602 24.275 17.5154 23.6867 17.5162 23C17.5162 22.3125 17.7614 21.7237 18.2519 21.2337C18.7423 20.7437 19.3312 20.4992 20.0185 20.5C20.7066 20.5 21.2959 20.745 21.7864 21.235C22.2768 21.725 22.5216 22.3133 22.5208 23C22.5208 23.6875 22.2756 24.2762 21.7851 24.7662C21.2947 25.2562 20.7058 25.5008 20.0185 25.5ZM6.44345 5.5L9.44623 11.75H18.2043L21.645 5.5H6.44345ZM5.25485 3H23.7094C24.189 3 24.5539 3.21375 24.8042 3.64125C25.0544 4.06875 25.0648 4.50083 24.8354 4.9375L20.3938 12.9375C20.1645 13.3542 19.8567 13.6771 19.4705 13.9062C19.0843 14.1354 18.6622 14.25 18.2043 14.25H8.88321L7.50694 16.75H22.5208V19.25H7.50694C6.56857 19.25 5.85958 18.8383 5.37997 18.015C4.90036 17.1917 4.87951 16.3742 5.31741 15.5625L7.00647 12.5L2.50231 3H0V0.5H4.06626L5.25485 3Z" fill="#D9D9D9"/>
</svg>