<svg width="122" height="25" viewBox="0 0 122 25" fill="none" xmlns="http://www.w3.org/2000/svg">
<path d="M8.928 24.512C7.02933 24.512 5.376 24.1173 3.968 23.328C2.56 22.5173 1.504 21.344 0.8 19.808L3.2 17.728C3.69067 18.88 4.32 19.9147 5.088 20.832C5.856 21.7493 6.67733 22.464 7.552 22.976C8.42667 23.488 9.26933 23.744 10.08 23.744C10.8267 23.744 11.4453 23.552 11.936 23.168C12.4267 22.7627 12.672 22.1867 12.672 21.44C12.672 20.5653 12.2667 19.68 11.456 18.784C10.6453 17.888 9.41867 16.7787 7.776 15.456C6.368 14.2827 5.248 13.3013 4.416 12.512C3.584 11.7227 2.86933 10.8373 2.272 9.856C1.67467 8.87467 1.376 7.86133 1.376 6.816C1.376 5.6 1.77067 4.544 2.56 3.648C3.37067 2.752 4.42667 2.08 5.728 1.632C7.02933 1.16267 8.416 0.927999 9.888 0.927999C11.2747 0.927999 12.5973 1.12 13.856 1.504C15.136 1.86667 16.2027 2.41067 17.056 3.136V8.032L16.544 8.064C16.3307 6.69867 15.904 5.52533 15.264 4.544C14.6453 3.54133 13.888 2.784 12.992 2.272C12.1173 1.76 11.2 1.504 10.24 1.504C9.408 1.504 8.69333 1.76 8.096 2.272C7.52 2.784 7.232 3.456 7.232 4.288C7.232 5.056 7.456 5.80267 7.904 6.528C8.37333 7.232 8.94933 7.89333 9.632 8.512C10.3147 9.13067 11.232 9.888 12.384 10.784C13.6213 11.744 14.6027 12.5653 15.328 13.248C16.0747 13.9093 16.704 14.6667 17.216 15.52C17.7493 16.352 18.016 17.2267 18.016 18.144C18.016 19.5093 17.5893 20.672 16.736 21.632C15.904 22.592 14.7947 23.3173 13.408 23.808C12.0213 24.2773 10.528 24.512 8.928 24.512ZM19.39 24C19.7527 23.232 19.9767 22.592 20.062 22.08C20.1687 21.5467 20.222 20.864 20.222 20.032V19.008V6.528V5.504C20.222 4.672 20.1687 4 20.062 3.488C19.9767 2.95467 19.7527 2.304 19.39 1.536H31.614C33.342 1.55733 34.7927 1.90933 35.966 2.592C37.1393 3.25333 38.014 4.13867 38.59 5.248C39.166 6.35733 39.454 7.56267 39.454 8.864C39.454 10.848 38.91 12.4907 37.822 13.792C36.734 15.072 35.326 16.0107 33.598 16.608C31.8913 17.2053 30.0567 17.504 28.094 17.504C27.7527 17.504 27.262 17.4827 26.622 17.44V19.008C26.622 20.2453 26.6647 21.1627 26.75 21.76C26.8353 22.336 27.07 23.0827 27.454 24H19.39ZM26.622 16.832C27.902 16.832 29.0007 16.4267 29.918 15.616C30.8567 14.784 31.5607 13.7387 32.03 12.48C32.5207 11.2 32.766 9.86667 32.766 8.48C32.766 6.66667 32.3607 5.14133 31.55 3.904C30.7393 2.64533 29.598 2.02667 28.126 2.048H26.622V16.832ZM40.7338 24C41.0964 23.232 41.3204 22.592 41.4058 22.08C41.5124 21.5467 41.5658 20.864 41.5658 20.032V19.008V6.528V5.504C41.5658 4.672 41.5124 4 41.4058 3.488C41.3204 2.95467 41.0964 2.304 40.7338 1.536H48.7978C48.4138 2.45333 48.1791 3.2 48.0938 3.776C48.0084 4.352 47.9658 5.26933 47.9658 6.528V23.392H49.8538C51.0271 23.392 52.4351 22.848 54.0778 21.76C55.7204 20.672 57.2884 19.4453 58.7818 18.08L57.4698 24H40.7338ZM57.765 24C58.9597 22.8693 60.037 21.536 60.997 20C61.9783 18.464 62.661 17.0667 63.045 15.808L67.013 2.304L66.405 1.536H74.501C74.4797 1.792 74.469 2.13333 74.469 2.56C74.469 3.17867 74.5223 3.744 74.629 4.256C74.757 4.74667 74.9917 5.504 75.333 6.528L79.461 19.008C79.8663 20.2453 80.2077 21.1627 80.485 21.76C80.7623 22.336 81.253 23.0827 81.957 24H73.893C73.957 23.552 73.989 23.168 73.989 22.848C73.989 22.3787 73.9357 21.9413 73.829 21.536C73.7437 21.1307 73.573 20.5333 73.317 19.744C73.253 19.616 73.1997 19.488 73.157 19.36C73.1357 19.232 73.1037 19.1147 73.061 19.008L71.589 14.592H63.941L63.589 15.808C63.269 16.8533 63.109 18.0373 63.109 19.36C63.109 21.1947 63.4183 22.7413 64.037 24H57.765ZM71.429 14.048L68.933 6.528C68.549 5.39733 68.2717 4.61867 68.101 4.192C67.9303 3.76533 67.6957 3.328 67.397 2.88L64.101 14.048H71.429ZM89.4905 24.512C87.5918 24.512 85.9385 24.1173 84.5305 23.328C83.1225 22.5173 82.0665 21.344 81.3625 19.808L83.7625 17.728C84.2532 18.88 84.8825 19.9147 85.6505 20.832C86.4185 21.7493 87.2398 22.464 88.1145 22.976C88.9892 23.488 89.8318 23.744 90.6425 23.744C91.3892 23.744 92.0078 23.552 92.4985 23.168C92.9892 22.7627 93.2345 22.1867 93.2345 21.44C93.2345 20.5653 92.8292 19.68 92.0185 18.784C91.2078 17.888 89.9812 16.7787 88.3385 15.456C86.9305 14.2827 85.8105 13.3013 84.9785 12.512C84.1465 11.7227 83.4318 10.8373 82.8345 9.856C82.2372 8.87467 81.9385 7.86133 81.9385 6.816C81.9385 5.6 82.3332 4.544 83.1225 3.648C83.9332 2.752 84.9892 2.08 86.2905 1.632C87.5918 1.16267 88.9785 0.927999 90.4505 0.927999C91.8372 0.927999 93.1598 1.12 94.4185 1.504C95.6985 1.86667 96.7652 2.41067 97.6185 3.136V8.032L97.1065 8.064C96.8932 6.69867 96.4665 5.52533 95.8265 4.544C95.2078 3.54133 94.4505 2.784 93.5545 2.272C92.6798 1.76 91.7625 1.504 90.8025 1.504C89.9705 1.504 89.2558 1.76 88.6585 2.272C88.0825 2.784 87.7945 3.456 87.7945 4.288C87.7945 5.056 88.0185 5.80267 88.4665 6.528C88.9358 7.232 89.5118 7.89333 90.1945 8.512C90.8772 9.13067 91.7945 9.888 92.9465 10.784C94.1838 11.744 95.1652 12.5653 95.8905 13.248C96.6372 13.9093 97.2665 14.6667 97.7785 15.52C98.3118 16.352 98.5785 17.2267 98.5785 18.144C98.5785 19.5093 98.1518 20.672 97.2985 21.632C96.4665 22.592 95.3572 23.3173 93.9705 23.808C92.5838 24.2773 91.0905 24.512 89.4905 24.512ZM99.9525 24C100.315 23.232 100.539 22.592 100.625 22.08C100.731 21.5467 100.785 20.864 100.785 20.032V19.008V6.528V5.504C100.785 4.672 100.731 4 100.625 3.488C100.539 2.95467 100.315 2.304 99.9525 1.536H108.017C107.633 2.45333 107.398 3.2 107.312 3.776C107.227 4.352 107.185 5.26933 107.185 6.528V12.128H114.545V6.528V5.504C114.545 4.672 114.491 4 114.385 3.488C114.299 2.95467 114.075 2.304 113.713 1.536H121.777C121.393 2.45333 121.158 3.2 121.073 3.776C120.987 4.352 120.945 5.26933 120.945 6.528V19.008C120.945 20.2453 120.987 21.1627 121.073 21.76C121.158 22.336 121.393 23.0827 121.777 24H113.713C114.075 23.232 114.299 22.592 114.385 22.08C114.491 21.5467 114.545 20.864 114.545 20.032V19.008V12.672H107.185V19.008C107.185 20.2453 107.227 21.1627 107.312 21.76C107.398 22.336 107.633 23.0827 108.017 24H99.9525Z" fill="#D9D9D9"/>
</svg>
