<svg xmlns="http://www.w3.org/2000/svg" width="45" height="28" viewBox="0 0 45 28" fill="none">
  <g clip-path="url(#clip0_570_71)">
    <path d="M28.5844 2.99445H16.417V25.0056H28.5844V2.99445Z" fill="#FF5F00"/>
    <path d="M17.1891 14C17.1891 9.72222 19.1591 5.63889 22.481 2.99445C16.4552 -1.78889 7.72561 -0.738887 2.97453 5.36667C-1.77654 11.4333 -0.73362 20.2222 5.33076 25.0056C10.3908 29.0111 17.4595 29.0111 22.5196 25.0056C19.1591 22.3611 17.1891 18.2778 17.1891 14Z" fill="#EB001B"/>
    <path d="M45.0002 14C45.0002 21.7389 38.7813 28 31.0946 28C27.9659 28 24.953 26.95 22.5195 25.0056C28.5453 20.2222 29.5882 11.4333 24.8371 5.32778C24.1419 4.47222 23.3693 3.65556 22.5195 2.99445C28.5453 -1.78889 37.3135 -0.738887 42.026 5.36667C43.9573 7.81667 45.0002 10.85 45.0002 14Z" fill="#F79E1B"/>
    <path d="M43.6874 22.6722V22.2056H43.8805V22.1278H43.417V22.2056H43.6101V22.6722H43.6874ZM44.5758 22.6722V22.1278H44.4213L44.2668 22.5167L44.1123 22.1278H43.9578V22.6722H44.0736V22.2444L44.2282 22.5944H44.344L44.4985 22.2444V22.6722H44.5758Z" fill="#F79E1B"/>
  </g>
  <defs>
    <clipPath id="clip0_570_71">
      <rect width="45" height="28" fill="white"/>
    </clipPath>
  </defs>
</svg>