<svg xmlns="http://www.w3.org/2000/svg" width="21" height="22" viewBox="0 0 21 22" fill="none">
  <g clip-path="url(#clip0_1452_53)">
    <path d="M10.5 21.5C7.71523 21.5 5.04451 20.3938 3.07538 18.4246C1.10625 16.4555 0 13.7848 0 11C0 8.21523 1.10625 5.54451 3.07538 3.57538C5.04451 1.60625 7.71523 0.5 10.5 0.5C13.2848 0.5 15.9555 1.60625 17.9246 3.57538C19.8938 5.54451 21 8.21523 21 11C21 13.7848 19.8938 16.4555 17.9246 18.4246C15.9555 20.3938 13.2848 21.5 10.5 21.5ZM15.75 9.95H5.25V12.05H15.75V9.95Z" fill="black"/>
  </g>
  <defs>
    <clipPath id="clip0_1452_53">
      <rect width="21" height="21" fill="white" transform="translate(0 0.5)"/>
    </clipPath>
  </defs>
</svg>