<svg xmlns="http://www.w3.org/2000/svg" width="24" height="24" viewBox="0 0 24 24" fill="none">
  <g clip-path="url(#clip0_263_308)">
    <path d="M7.19999 21.5998L12 10.3998M6.82239 15.1998C6.03378 14.3207 5.59836 13.1808 5.59999 11.9998V11.1998C5.59999 9.71459 6.18999 8.29021 7.24019 7.24001C8.29039 6.1898 9.71478 5.5998 11.2 5.5998H12.8C14.2852 5.5998 15.7096 6.1898 16.7598 7.24001C17.81 8.29021 18.4 9.71459 18.4 11.1998V11.9998C18.4 13.2728 17.8943 14.4937 16.9941 15.3939C16.0939 16.2941 14.873 16.7998 13.6 16.7998C12.9012 16.7997 12.2202 16.5798 11.6533 16.1712C11.0865 15.7625 10.6625 15.1859 10.4416 14.523L10.4 14.3998M12 23.1998C10.5292 23.1998 9.07278 22.9101 7.71393 22.3473C6.35509 21.7844 5.12041 20.9594 4.08039 19.9194C3.04038 18.8794 2.21539 17.6447 1.65254 16.2859C1.08968 14.927 0.799988 13.4706 0.799988 11.9998C0.799988 10.529 1.08968 9.0726 1.65254 7.71375C2.21539 6.3549 3.04038 5.12022 4.08039 4.08021C5.12041 3.04019 6.35509 2.21521 7.71393 1.65235C9.07278 1.0895 10.5292 0.799805 12 0.799805C14.9704 0.799805 17.8192 1.9798 19.9196 4.08021C22.02 6.18062 23.2 9.02938 23.2 11.9998C23.2 14.9702 22.02 17.819 19.9196 19.9194C17.8192 22.0198 14.9704 23.1998 12 23.1998Z" stroke="black"/>
  </g>
  <defs>
    <clipPath id="clip0_263_308">
      <rect width="24" height="24" fill="white"/>
    </clipPath>
  </defs>
</svg>