<svg xmlns="http://www.w3.org/2000/svg" width="22" height="22" viewBox="0 0 22 22" fill="none">
  <path d="M11 0.5C8.22562 0.533472 5.57431 1.65047 3.61239 3.61239C1.65047 5.57431 0.533472 8.22562 0.5 11C0.533472 13.7744 1.65047 16.4257 3.61239 18.3876C5.57431 20.3495 8.22562 21.4665 11 21.5C13.7744 21.4665 16.4257 20.3495 18.3876 18.3876C20.3495 16.4257 21.4665 13.7744 21.5 11C21.4665 8.22562 20.3495 5.57431 18.3876 3.61239C16.4257 1.65047 13.7744 0.533472 11 0.5ZM17 11.75H11.75V17H10.25V11.75H5V10.25H10.25V5H11.75V10.25H17V11.75Z" fill="black"/>
</svg>