<svg xmlns="http://www.w3.org/2000/svg" width="25" height="26" viewBox="0 0 25 26" fill="none">
  <path fill-rule="evenodd" clip-rule="evenodd" d="M11.1201 0.5C9.34671 0.500151 7.5991 0.924367 6.02305 1.73726C4.447 2.55014 3.0882 3.72813 2.06002 5.17294C1.03184 6.61775 0.364097 8.28748 0.112499 10.0428C-0.139099 11.7982 0.0327433 13.5882 0.61369 15.2637C1.19464 16.9391 2.16784 18.4513 3.45211 19.6741C4.73638 20.897 6.29446 21.795 7.99638 22.2932C9.6983 22.7914 11.4947 22.8755 13.2357 22.5383C14.9767 22.2011 16.6118 21.4524 18.0046 20.3548L22.7827 25.1327C23.0295 25.3711 23.36 25.5029 23.703 25.5C24.0461 25.497 24.3742 25.3594 24.6168 25.1168C24.8594 24.8742 24.997 24.5461 25 24.2031C25.0029 23.86 24.8711 23.5296 24.6327 23.2828L19.8546 18.5049C21.1473 16.8651 21.9521 14.8945 22.1771 12.8186C22.402 10.7428 22.038 8.64553 21.1266 6.7669C20.2153 4.88827 18.7934 3.30416 17.0237 2.19586C15.2541 1.08757 13.2081 0.49986 11.1201 0.5ZM2.61576 11.6206C2.61576 9.36519 3.51175 7.20217 5.10661 5.60736C6.70148 4.01256 8.86458 3.11661 11.1201 3.11661C13.3755 3.11661 15.5386 4.01256 17.1335 5.60736C18.7284 7.20217 19.6244 9.36519 19.6244 11.6206C19.6244 13.876 18.7284 16.039 17.1335 17.6338C15.5386 19.2286 13.3755 20.1246 11.1201 20.1246C8.86458 20.1246 6.70148 19.2286 5.10661 17.6338C3.51175 16.039 2.61576 13.876 2.61576 11.6206Z" fill="#D9D9D9"/>
</svg>