<svg xmlns="http://www.w3.org/2000/svg" width="24" height="23" viewBox="0 0 24 23" fill="none">
  <path d="M23.9321 3.56549C23.8649 3.39125 23.751 3.24231 23.6048 3.13751C23.4587 3.03271 23.2868 2.97675 23.111 2.97671H19.7298C19.257 2.114 18.5842 1.39718 17.7768 0.895935C16.9693 0.394689 16.0547 0.126073 15.1219 0.116204C14.4268 0.106425 13.737 0.245848 13.093 0.52627C12.449 0.806691 11.8637 1.22245 11.3717 1.74907C10.8653 2.28211 10.4634 2.91836 10.1896 3.62042C9.91578 4.32248 9.77557 5.07619 9.77723 5.83721V6.56306C5.30375 5.29729 1.64474 1.39389 1.60585 1.35218C1.48659 1.22312 1.33544 1.13331 1.17019 1.09331C1.00494 1.05331 0.832475 1.0648 0.673107 1.12642C0.513739 1.18803 0.374102 1.29721 0.270643 1.4411C0.167183 1.58499 0.104208 1.75759 0.0891344 1.93858C-0.38977 7.63456 1.1525 11.4462 2.53366 13.6404C3.2071 14.7251 4.02636 15.6971 4.96485 16.5248C3.27257 18.6141 0.60804 19.7118 0.57915 19.7238C0.453717 19.7742 0.340522 19.8543 0.248024 19.9582C0.155525 20.0621 0.0861145 20.1871 0.0449782 20.3238C0.00384185 20.4606 -0.00795642 20.6055 0.0104646 20.7478C0.0288857 20.8901 0.0770497 21.0261 0.151358 21.1457C0.234694 21.2792 0.568039 21.7476 1.38251 22.185C2.38921 22.7261 3.71925 23.0002 5.33264 23.0002C13.1851 23.0002 19.7464 16.514 20.4165 8.16852L23.7399 4.60481C23.8642 4.47139 23.9488 4.30143 23.983 4.11643C24.0172 3.93143 23.9995 3.7397 23.9321 3.56549ZM18.932 7.0708C18.7796 7.23468 18.688 7.45242 18.6742 7.68343C18.222 15.203 12.364 21.0932 5.33264 21.0932C4.15927 21.0932 3.33257 20.9264 2.75256 20.7261C4.03149 19.9812 5.81488 18.6999 6.96158 16.8549C7.02889 16.7464 7.07474 16.6243 7.09632 16.496C7.1179 16.3678 7.11474 16.2362 7.08704 16.1093C7.05935 15.9824 7.0077 15.863 6.93528 15.7583C6.86287 15.6537 6.77123 15.5661 6.66602 15.5009C6.61379 15.4688 1.78697 12.3615 1.77697 4.05893C3.5548 5.60837 6.80491 8.01238 10.5184 8.68222C10.6456 8.70524 10.7761 8.69825 10.9005 8.66174C11.025 8.62524 11.1406 8.56009 11.2393 8.47082C11.338 8.38156 11.4173 8.27032 11.4718 8.14485C11.5264 8.01937 11.5548 7.88265 11.5551 7.74421V5.83721C11.5541 5.32858 11.6479 4.82487 11.8311 4.35572C12.0143 3.88658 12.2831 3.46147 12.6218 3.10543C12.9464 2.75656 13.3329 2.48105 13.7585 2.29516C14.1841 2.10928 14.6401 2.01681 15.0996 2.02321C16.5063 2.04228 17.8208 2.9624 18.3708 4.3128C18.4402 4.48258 18.5541 4.627 18.6988 4.72839C18.8435 4.82979 19.0125 4.88376 19.1853 4.88371H20.9632L18.932 7.0708Z" fill="black"/>
</svg>