<svg xmlns="http://www.w3.org/2000/svg" width="81" height="28" viewBox="0 0 81 28" fill="none">
  <path d="M52.7751 0C47.0313 0 41.8742 3.19529 41.8742 9.05882C41.8742 15.8118 50.984 16.2729 50.984 19.6329C50.984 21.0494 49.44 22.3341 46.846 22.3341C43.1403 22.3341 40.361 20.5553 40.361 20.5553L39.1876 26.4847C39.1876 26.4847 42.3683 28 46.6298 28C52.9295 28 57.8704 24.6729 57.8704 18.6776C57.8704 11.5624 48.7297 11.1012 48.7297 7.97177C48.7297 6.85176 49.9958 5.63294 52.5898 5.63294C55.5234 5.63294 57.9321 6.91765 57.9321 6.91765L59.1056 1.18588C59.0747 1.18588 56.4499 0 52.7751 0ZM0.154403 0.428235L0 1.28471C0 1.28471 2.40869 1.74588 4.60122 2.70118C7.41136 3.78824 7.59665 4.41412 8.09074 6.35765L13.2478 27.5388H20.1651L30.7571 0.428235H23.8708L17.0461 18.8753L14.2669 3.22824C14.0198 1.44941 12.7228 0.428235 11.117 0.428235H0.154403ZM33.5364 0.428235L28.1323 27.5388H34.7099L40.0831 0.428235H33.5364ZM70.1609 0.428235C68.586 0.428235 67.7522 1.31765 67.1346 2.89882L57.4998 27.5388H64.3862L65.7141 23.4212H74.1136L74.9165 27.5388H81L75.7194 0.428235H70.1609ZM71.0564 7.77412L73.0946 17.9529H67.6287L71.0564 7.77412Z" fill="#1434CB"/>
</svg>